<?xml version="1.0" standalone="no"?>
<!DOCTYPE svg PUBLIC "-//W3C//DTD SVG 20010904//EN"
 "http://www.w3.org/TR/2001/REC-SVG-20010904/DTD/svg10.dtd">
<svg version="1.0" xmlns="http://www.w3.org/2000/svg"
 width="715.000000pt" height="241.000000pt" viewBox="0 0 715.000000 241.000000"
 preserveAspectRatio="xMidYMid meet">

<g transform="translate(0.000000,241.000000) scale(0.100000,-0.100000)"
fill="#000000" stroke="none">
<path d="M0 1205 l0 -1195 3555 0 3555 0 0 1195 0 1195 -3555 0 -3555 0 0
-1195z m7000 0 l0 -1085 -3450 0 -3450 0 0 1085 0 1085 3450 0 3450 0 0 -1085z"/>
<path d="M160 1210 l0 -1030 3395 0 3395 0 0 1030 0 1030 -3395 0 -3395 0 0
-1030z m3010 417 l5 -359 188 196 189 196 84 0 c46 0 84 -3 84 -6 0 -3 -64
-73 -142 -155 -79 -82 -144 -154 -146 -158 -2 -5 67 -113 152 -239 86 -127
159 -237 162 -246 5 -14 -5 -16 -80 -16 l-86 0 -126 193 c-69 105 -128 194
-131 197 -2 3 -37 -31 -76 -74 l-72 -79 -5 -116 -5 -116 -72 -3 -73 -3 0 576
0 576 73 -3 72 -3 5 -358z m-1912 226 l-3 -68 -172 -3 -173 -2 0 -470 0 -470
-80 0 -80 0 0 470 0 470 -170 0 -170 0 0 70 0 70 425 0 426 0 -3 -67z m593
-204 c88 -22 168 -107 188 -200 6 -29 11 -168 11 -329 l0 -280 -75 0 -75 0 0
51 0 51 -40 -35 c-103 -88 -306 -99 -417 -23 -134 92 -140 292 -11 384 64 45
150 62 326 62 l142 0 0 37 c0 58 -36 120 -83 144 -87 45 -226 30 -332 -35
l-40 -25 -32 52 -33 51 48 28 c128 76 288 101 423 67z m770 6 c51 -5 179 -56
179 -70 0 -3 -12 -28 -26 -56 -20 -40 -29 -49 -42 -44 -200 84 -352 67 -352
-40 0 -47 45 -78 170 -120 63 -21 129 -44 145 -52 39 -19 93 -71 111 -105 20
-39 18 -144 -5 -193 -52 -115 -224 -165 -416 -121 -72 17 -172 67 -181 90 -3
8 6 37 20 64 l26 51 50 -34 c69 -47 148 -68 237 -63 53 2 79 9 100 24 57 43
51 119 -13 156 -17 10 -81 35 -142 57 -134 47 -165 64 -205 114 -26 31 -32 49
-35 101 -2 35 1 80 7 99 15 44 61 90 116 117 43 21 143 40 180 34 11 -2 45 -6
76 -9z m1698 -6 c160 -36 261 -185 261 -386 l0 -73 -320 0 -320 0 6 -27 c28
-117 123 -192 250 -201 86 -5 155 14 218 63 l44 33 37 -38 c24 -25 36 -44 32
-54 -10 -25 -125 -95 -184 -112 -72 -21 -214 -20 -278 1 -115 39 -186 103
-239 214 -29 62 -31 73 -31 181 0 111 1 118 34 185 91 184 272 263 490 214z
m891 -53 l0 -73 -52 -7 c-102 -14 -170 -62 -209 -148 -22 -50 -24 -66 -27
-290 l-4 -238 -74 0 -74 0 0 410 0 410 75 0 74 0 3 -80 3 -80 35 47 c42 56
121 102 193 113 29 4 53 8 55 9 1 0 2 -32 2 -73z m590 -1 l0 -75 -28 0 c-92 0
-192 -63 -233 -147 -23 -46 -24 -59 -27 -290 l-4 -243 -74 0 -74 0 0 410 0
410 75 0 75 0 0 -82 c0 -80 0 -82 17 -58 51 77 129 127 218 140 27 4 51 8 53
9 1 0 2 -33 2 -74z m231 -614 c38 -38 39 -87 4 -125 -55 -60 -145 -21 -145 64
0 30 6 43 31 64 40 34 74 33 110 -3z m327 -7 c54 -61 0 -156 -83 -145 -34 4
-65 48 -65 91 0 31 6 43 32 65 38 32 81 29 116 -11z m286 26 c14 -5 33 -24 42
-41 13 -27 14 -39 5 -70 -29 -96 -161 -75 -161 25 1 43 12 65 45 84 25 14 37
15 69 2z m-5265 -385 c8 -22 21 -56 29 -75 l14 -35 28 75 c21 57 32 75 46 75
17 0 19 -9 19 -110 0 -91 -3 -110 -15 -110 -11 0 -16 18 -21 75 -3 41 -6 70
-7 63 -1 -7 -11 -38 -23 -69 -25 -65 -33 -62 -66 24 l-22 57 0 -77 c-1 -62 -4
-78 -16 -78 -12 0 -15 20 -15 116 0 104 2 115 17 112 10 -2 24 -21 32 -43z
m312 -72 c34 -101 36 -113 20 -113 -12 0 -21 11 -27 33 -9 29 -14 32 -50 35
-39 3 -42 1 -47 -28 -6 -28 -31 -50 -43 -38 -4 4 12 54 71 216 3 8 12 12 22
10 11 -2 28 -38 54 -115z m143 32 c26 -47 49 -85 49 -85 1 0 2 37 2 82 0 67 3
83 15 83 12 0 15 -19 15 -110 0 -145 -13 -149 -81 -27 l-49 89 0 -86 c0 -70
-3 -86 -15 -86 -12 0 -16 19 -18 99 -1 55 0 106 2 113 12 29 35 9 80 -72z
m257 -32 c34 -101 36 -113 20 -113 -12 0 -21 11 -27 33 -8 28 -15 32 -46 35
-34 3 -38 0 -52 -32 -8 -20 -22 -36 -30 -36 -9 0 -16 1 -16 3 0 1 16 47 35
102 20 55 38 106 40 113 3 8 12 12 22 10 11 -2 28 -38 54 -115z m201 103 c25
-19 12 -26 -36 -20 -54 8 -81 -19 -81 -81 0 -55 27 -87 69 -83 25 2 32 8 34
30 3 21 -1 27 -19 30 -42 6 -34 28 10 28 l41 0 0 -50 c0 -38 -4 -52 -19 -60
-46 -24 -114 -3 -137 41 -28 54 -10 143 33 168 25 15 85 13 105 -3z m198 -1
c0 -11 -12 -15 -50 -15 -49 0 -50 -1 -50 -29 0 -28 3 -30 42 -33 59 -4 63 -28
4 -28 l-46 0 0 -40 0 -40 50 0 c38 0 50 -4 50 -15 0 -12 -14 -15 -65 -15 l-65
0 0 115 0 115 65 0 c51 0 65 -3 65 -15z m245 -10 c14 -13 25 -33 25 -45 0 -33
-44 -70 -84 -70 -34 0 -35 -1 -38 -42 -2 -31 -8 -44 -20 -46 -16 -3 -18 7 -18
112 l0 116 55 0 c46 0 60 -4 80 -25z m178 14 c44 -24 50 -68 13 -102 l-24 -23
24 -39 c28 -46 29 -55 9 -55 -8 0 -26 20 -41 45 -16 28 -33 45 -45 45 -16 0
-19 -7 -19 -45 0 -33 -4 -45 -15 -45 -12 0 -15 19 -15 115 l0 115 46 0 c25 0
55 -5 67 -11z m228 -18 c25 -26 29 -37 29 -86 0 -49 -4 -60 -29 -86 -31 -31
-75 -38 -112 -19 -56 31 -66 153 -15 197 39 33 90 31 127 -6z m169 -66 c0 -82
-3 -98 -20 -115 -24 -24 -58 -26 -89 -4 -16 12 -20 19 -12 27 8 8 14 8 23 -1
20 -20 48 -14 58 14 6 14 10 59 10 100 0 59 3 74 15 74 12 0 15 -17 15 -95z
m188 78 c2 -9 -11 -13 -47 -13 -50 0 -51 -1 -51 -29 0 -27 3 -30 37 -33 52 -4
56 -28 4 -28 l-41 0 0 -40 0 -40 50 0 c38 0 50 -4 50 -15 0 -12 -14 -15 -70
-15 l-70 0 0 115 0 116 67 -3 c42 -2 68 -8 71 -15z m178 3 c14 -11 16 -18 8
-26 -8 -8 -14 -9 -18 -1 -8 13 -55 14 -73 3 -19 -12 -35 -65 -28 -98 10 -58
47 -74 108 -49 28 12 21 -24 -7 -36 -32 -15 -88 -4 -111 21 -39 43 -28 153 19
185 26 19 77 19 102 1z m194 -1 c0 -10 -10 -15 -30 -15 l-29 0 -3 -97 c-3 -84
-6 -98 -20 -101 -16 -3 -18 7 -18 97 l0 101 -29 0 c-30 0 -46 12 -34 24 3 3
42 6 85 6 63 0 78 -3 78 -15z m138 3 c21 -21 13 -26 -35 -25 -41 2 -48 -1 -48
-17 0 -13 16 -28 50 -45 45 -23 50 -30 53 -63 2 -28 -2 -40 -20 -52 -29 -21
-77 -20 -107 0 -29 21 -14 41 18 24 34 -18 75 -9 79 17 3 17 -8 27 -50 50 -42
22 -54 34 -56 56 -5 40 22 67 68 67 20 0 41 -5 48 -12z m262 -3 c0 -11 -12
-15 -50 -15 -49 0 -50 -1 -50 -29 0 -28 3 -30 42 -33 59 -4 63 -28 4 -28 l-46
0 0 -40 0 -40 56 0 c40 0 55 -3 52 -12 -3 -8 -29 -14 -71 -16 l-67 -3 0 116 0
115 65 0 c51 0 65 -3 65 -15z m180 0 c0 -11 -12 -15 -50 -15 l-50 0 0 -34 c0
-34 1 -35 43 -38 23 -2 42 -7 42 -13 0 -5 -19 -11 -42 -13 l-43 -3 0 -50 c0
-37 -4 -49 -15 -49 -12 0 -15 19 -15 115 l0 115 65 0 c51 0 65 -3 65 -15z
m168 -2 c2 -9 -11 -13 -47 -13 l-51 0 0 -35 c0 -34 1 -35 40 -35 29 0 40 -4
40 -15 0 -11 -11 -15 -40 -15 l-40 0 0 -51 c0 -43 -3 -50 -17 -47 -16 3 -18
17 -21 102 -1 55 0 106 2 113 7 18 127 14 134 -4z m62 -98 c0 -96 -3 -115 -15
-115 -12 0 -15 19 -15 115 0 96 3 115 15 115 12 0 15 -19 15 -115z m190 100
c0 -11 -12 -15 -50 -15 -49 0 -50 -1 -50 -29 0 -28 3 -30 42 -33 59 -4 63 -28
4 -28 l-46 0 0 -40 0 -40 50 0 c38 0 50 -4 50 -15 0 -12 -14 -15 -65 -15 l-65
0 0 115 0 115 65 0 c51 0 65 -3 65 -15z m180 0 c9 -11 10 -19 3 -26 -8 -8 -13
-7 -17 0 -13 20 -64 12 -80 -11 -23 -33 -21 -103 4 -128 22 -22 60 -26 78 -8
9 9 15 9 23 1 8 -8 4 -15 -12 -27 -51 -35 -117 -7 -139 59 -15 44 -5 87 27
125 19 24 33 30 63 30 22 0 43 -6 50 -15z m141 -75 l49 -85 0 88 c0 71 3 87
15 87 12 0 15 -20 15 -116 0 -104 -2 -115 -17 -112 -10 2 -38 39 -63 83 l-45
80 -3 -82 c-2 -65 -6 -83 -17 -83 -12 0 -15 21 -15 116 0 144 11 147 81 24z
m279 75 c0 -10 -11 -15 -35 -15 l-35 0 0 -100 c0 -82 -3 -100 -15 -100 -12 0
-15 18 -15 100 l0 100 -35 0 c-33 0 -43 8 -28 23 3 4 42 7 85 7 63 0 78 -3 78
-15z m70 -85 l0 -100 51 0 c36 0 49 -4 47 -12 -3 -9 -26 -13 -69 -13 l-64 0
-3 99 c-3 109 0 126 23 126 12 0 15 -17 15 -100z m132 43 l25 -57 23 57 c17
40 29 57 42 57 16 0 14 -8 -17 -70 -25 -49 -35 -83 -35 -115 0 -33 -4 -45 -15
-45 -11 0 -15 12 -15 45 0 31 -10 65 -30 105 -33 66 -36 80 -16 80 7 0 25 -26
38 -57z"/>
<path d="M1558 1194 c-26 -8 -54 -24 -63 -36 -21 -30 -19 -96 4 -134 30 -49
80 -67 170 -62 146 9 231 84 231 204 l0 44 -147 -1 c-99 0 -164 -5 -195 -15z"/>
<path d="M4124 1531 c-46 -12 -101 -48 -129 -85 -22 -29 -55 -105 -55 -127 0
-5 115 -9 255 -9 140 0 255 4 255 8 0 5 -6 29 -14 55 -31 102 -101 155 -213
162 -37 2 -82 1 -99 -4z"/>
<path d="M1622 582 c-16 -52 -16 -52 13 -52 23 0 25 3 19 28 -16 63 -20 66
-32 24z"/>
<path d="M2022 582 c-16 -52 -16 -52 13 -52 23 0 25 3 19 28 -16 63 -20 66
-32 24z"/>
<path d="M2640 590 c0 -36 3 -40 24 -40 41 0 56 11 56 40 0 29 -15 40 -56 40
-21 0 -24 -4 -24 -40z"/>
<path d="M2830 594 c0 -35 1 -35 38 -32 30 2 38 7 40 27 4 28 -12 41 -50 41
-25 0 -28 -3 -28 -36z"/>
<path d="M3042 622 c-18 -12 -33 -71 -25 -101 13 -56 63 -79 97 -46 45 45 22
155 -31 155 -16 0 -34 -4 -41 -8z"/>
</g>
</svg>
